{"title":"SWITCHERS Algerie S01.E01","uid":8508887,"size":68282982,"categoryP":"video","categoryS":"tv_shows","magnet":"?xt=urn:btih:3f6dc41e98c62d4c1c25696076ee6aabaa95055f&amp;dn=SWITCHERS+Algerie+S01.E01&amp;tr=udp%3A%2F%2Ftracker.openbittorrent.com%3A80&amp;tr=udp%3A%2F%2Fopen.demonii.com%3A1337&amp;tr=udp%3A%2F%2Ftracker.coppersurfer.tk%3A6969&amp;tr=udp%3A%2F%2Fexodus.desync.com%3A6969","seeders":1,"leechers":0,"uploader":"Oz","files":-1,"time":1369508603,"description":"General\n\nFormat                                   : Flash Video\nFile size                                : 65.1 MiB\nDuration                                 : 8mn 51s\nOverall bit rate                         : 1 028 Kbps\nhttphostheader                           :\n\nVideo\n\nFormat                                   : AVC\nFormat/Info                              : Advanced Video Codec\nFormat profile                           : &lt;a class=&quot;__cf_email__&quot; href=&quot;/cdn-cgi/l/email-protection&quot; data-cfemail=&quot;bef3dfd7d0fef28d908e&quot;&gt;[email&amp;#160;protected]&lt;/a&gt;&lt;script cf-hash='f9e31' type=&quot;text/javascript&quot;&gt;\n/* &lt;![CDATA[ */!function(){try{var t=&quot;currentScript&quot;in document?document.currentScript:function(){for(var t=document.getElementsByTagName(&quot;script&quot;),e=t.length;e--;)if(t[e].getAttribute(&quot;cf-hash&quot;))return t[e]}();if(t&amp;&amp;t.previousSibling){var e,r,n,i,c=t.previousSibling,a=c.getAttribute(&quot;data-cfemail&quot;);if(a){for(e=&quot;&quot;,r=parseInt(a.substr(0,2),16),n=2;a.length-n;n+=2)i=parseInt(a.substr(n,2),16)^r,e+=String.fromCharCode(i);e=document.createTextNode(e),c.parentNode.replaceChild(e,c)}}}catch(u){}}();/* ]]&gt; */&lt;/script&gt;\nFormat settings, CABAC                   : Yes\nFormat settings, ReFrames                : 3 frames\nCodec ID                                 : 7\nDuration                                 : 8mn 51s\nBit rate                                 : 891 Kbps\nWidth                                    : 846 pixels\nHeight                                   : 480 pixels\nDisplay aspect ratio                     : 16:9\nFrame rate mode                          : Constant\nFrame rate                               : 25.000 fps\nColor space                              : YUV\nChroma subsampling                       : 4:2:0\nBit depth                                : 8 bits\nScan type                                : Progressive\nBits/(Pixel*Frame)                       : 0.088\nStream size                              : 56.5 MiB (87%)\n\nAudio\n\nFormat                                   : AAC\nFormat/Info                              : Advanced Audio Codec\nFormat profile                           : LC\nCodec ID                                 : 10\nDuration                                 : 8mn 51s\nBit rate                                 : 129 Kbps\nChannel(s)                               : 2 channels\nChannel positions                        : Front: L R\nSampling rate                            : 44.1 KHz\nCompression mode                         : Lossy\nStream size                              : 8.15 MiB (13%)\n\n***\n\nWeb Site: www.switchers.dz\n\nYoutube Channel:\n\n***","torrent":{"xt":"urn:btih:3f6dc41e98c62d4c1c25696076ee6aabaa95055f","amp;dn":"SWITCHERS+Algerie+S01.E01","amp;tr":["udp%3A%2F%2Ftracker.openbittorrent.com%3A80","udp%3A%2F%2Fopen.demonii.com%3A1337","udp%3A%2F%2Ftracker.coppersurfer.tk%3A6969","udp%3A%2F%2Fexodus.desync.com%3A6969"],"infoHash":"3f6dc41e98c62d4c1c25696076ee6aabaa95055f","infoHashBuffer":{"type":"Buffer","data":[63,109,196,30,152,198,45,76,28,37,105,96,118,238,106,171,170,149,5,95]},"announce":[],"urlList":[]}}